<?xml version="1.0" encoding="UTF-8"?>
<svg version="1.1" xmlns="http://www.w3.org/2000/svg" width="512" height="512">
<path d="M0 0 C1.01790619 0.00215515 2.03581238 0.0043103 3.08456421 0.00653076 C17.69363523 0.05620146 32.02575853 0.30709809 46.375 3.3125 C47.34985352 3.51117676 48.32470703 3.70985352 49.32910156 3.91455078 C97.7109774 14.03517194 141.69928269 35.9516877 177.375 70.3125 C178.3640332 71.26068604 178.3640332 71.26068604 179.37304688 72.22802734 C188.86130305 81.37247479 197.6012044 90.66984009 205.375 101.3125 C206.23306152 102.46355017 207.09113451 103.61459177 207.94921875 104.765625 C213.98736829 112.95680614 219.34595521 121.47054105 224.375 130.3125 C224.73948242 130.94430176 225.10396484 131.57610352 225.47949219 132.22705078 C247.08534998 169.97532572 256.85198095 212.74189997 256.6875 255.9375 C256.68534485 256.95540619 256.6831897 257.97331238 256.68096924 259.02206421 C256.63129854 273.63113523 256.38040191 287.96325853 253.375 302.3125 C253.07698486 303.77478027 253.07698486 303.77478027 252.77294922 305.26660156 C242.65232806 353.6484774 220.7358123 397.63678269 186.375 433.3125 C185.74287598 433.97185547 185.11075195 434.63121094 184.45947266 435.31054688 C175.31502521 444.79880305 166.01765991 453.5387044 155.375 461.3125 C154.22394983 462.17056152 153.07290823 463.02863451 151.921875 463.88671875 C143.73224019 469.92427396 135.22961724 475.30707302 126.375 480.3125 C125.66778809 480.7146875 124.96057617 481.116875 124.23193359 481.53125 C101.09654164 494.5566741 75.92537591 503.30551461 49.9375 508.625 C49.21860596 508.77235596 48.49971191 508.91971191 47.7590332 509.0715332 C33.08339502 511.86090125 18.55831162 512.66142619 3.64770508 512.62817383 C0.70811513 512.6250221 -2.2304558 512.64854926 -5.16992188 512.67382812 C-18.54306192 512.71848737 -31.43916711 511.51301542 -44.625 509.3125 C-46.33055054 509.03031616 -46.33055054 509.03031616 -48.07055664 508.74243164 C-91.33802759 500.97044532 -132.38793216 480.98345309 -165.625 452.3125 C-166.37007813 451.67828125 -167.11515625 451.0440625 -167.8828125 450.390625 C-181.38779833 438.57948485 -194.05918743 425.82889772 -204.625 411.3125 C-205.48149066 410.16255169 -206.33826433 409.01281411 -207.1953125 407.86328125 C-213.23534209 399.67315742 -218.61867614 391.16870382 -223.625 382.3125 C-224.0271875 381.60528809 -224.429375 380.89807617 -224.84375 380.16943359 C-237.8691741 357.03404164 -246.61801461 331.86287591 -251.9375 305.875 C-252.08485596 305.15610596 -252.23221191 304.43721191 -252.3840332 303.6965332 C-255.35789088 288.05024391 -255.99800362 272.57681954 -255.9375 256.6875 C-255.93534485 255.66959381 -255.9331897 254.65168762 -255.93096924 253.60293579 C-255.88129854 238.99386477 -255.63040191 224.66174147 -252.625 210.3125 C-252.42632324 209.33764648 -252.22764648 208.36279297 -252.02294922 207.35839844 C-241.90232806 158.9765226 -219.9858123 114.98821731 -185.625 79.3125 C-184.99287598 78.65314453 -184.36075195 77.99378906 -183.70947266 77.31445312 C-174.56502521 67.82619695 -165.26765991 59.0862956 -154.625 51.3125 C-153.47394983 50.45443848 -152.32290823 49.59636549 -151.171875 48.73828125 C-142.98224019 42.70072604 -134.47961724 37.31792698 -125.625 32.3125 C-124.91778809 31.9103125 -124.21057617 31.508125 -123.48193359 31.09375 C-100.34654164 18.0683259 -75.17537591 9.31948539 -49.1875 4 C-48.46860596 3.85264404 -47.74971191 3.70528809 -47.0090332 3.5534668 C-31.36274391 0.57960912 -15.88931954 -0.06050362 0 0 Z " fill="#FCBC34" transform="translate(255.625,-0.3125)"/>
<path d="M0 0 C5.39552695 5.08887996 10.07786474 10.53932117 14.5625 16.4375 C15.23925781 17.31019531 15.91601562 18.18289062 16.61328125 19.08203125 C40.84463483 51.21798172 50.77920245 91.08954865 45.53735352 130.88037109 C41.00732454 160.6411476 28.22110925 188.26957096 7.5703125 210.25390625 C5.49847301 212.45358181 5.49847301 212.45358181 3.51953125 215.015625 C0.58332954 218.64924787 -2.84061685 221.47366829 -6.4375 224.4375 C-7.37722656 225.21480469 -8.31695312 225.99210937 -9.28515625 226.79296875 C-22.01550436 237.07718793 -36.27099095 244.41646929 -51.4375 250.4375 C-52.59121094 250.90027344 -53.74492187 251.36304688 -54.93359375 251.83984375 C-91.51116011 265.25569585 -132.38537307 261.50555835 -167.32470703 245.4296875 C-181.04463048 238.98668208 -193.20873687 230.8204976 -204.25390625 220.4453125 C-206.45358181 218.37347301 -206.45358181 218.37347301 -209.015625 216.39453125 C-212.64924787 213.45832954 -215.47366829 210.03438315 -218.4375 206.4375 C-219.21480469 205.49777344 -219.99210937 204.55804688 -220.79296875 203.58984375 C-231.07379586 190.86369452 -238.42972233 176.60530814 -244.4375 161.4375 C-244.90027344 160.2721875 -245.36304688 159.106875 -245.83984375 157.90625 C-257.69278793 125.33767388 -257.26527733 84.26036359 -242.875 52.421875 C-242.400625 51.43703125 -241.92625 50.4521875 -241.4375 49.4375 C-241.00630859 48.51807617 -241.00630859 48.51807617 -240.56640625 47.58007812 C-224.85093694 14.1602523 -199.13109928 -12.31220148 -165.4375 -27.5625 C-164.47070312 -28.02011719 -163.50390625 -28.47773437 -162.5078125 -28.94921875 C-107.69919293 -53.55875473 -43.77235626 -39.30177891 0 0 Z " fill="#FEFEFD" transform="translate(359.4375,146.5625)"/>
<path d="M0 0 C2.53784214 0.01070614 5.0749722 0.00003541 7.61279297 -0.01269531 C19.07893443 -0.02098789 30.29598754 0.84666878 41.67138672 2.26074219 C44.179746 26.67721822 46.14186471 52.95047868 41.67138672 77.26074219 C35.08646489 83.84566401 9.75027221 80.48522908 0.35888672 80.51074219 C-0.39067291 80.51582794 -1.14023254 80.5209137 -1.9125061 80.52615356 C-12.85774739 80.58581818 -23.48789273 79.76143634 -34.32861328 78.26074219 C-37.64907191 53.84222525 -38.54678696 26.6262172 -34.32861328 2.26074219 C-22.84828361 0.63103654 -11.5933055 -0.05786637 0 0 Z " fill="#DE9520" transform="translate(252.32861328125,215.7392578125)"/>
<path d="M0 0 C11.08769321 3.69589774 16.00393588 15.03686081 21.125 24.75 C23.78512942 30.19607578 25.9426787 35.69446135 27.875 41.4375 C28.11742432 42.15752197 28.35984863 42.87754395 28.60961914 43.61938477 C30.39037482 49.14909976 31.40610906 54.4055453 32.5625 60.1875 C10.7825 60.1875 -10.9975 60.1875 -33.4375 60.1875 C-29.29902449 39.49512245 -21.92593939 17.07594763 -6.375 1.9375 C-3.4375 0.1875 -3.4375 0.1875 0 0 Z " fill="#D78C1D" transform="translate(256.4375,131.8125)"/>
<path d="M0 0 C0 21.78 0 43.56 0 66 C-20.01687626 61.99662475 -46.41477342 54.54724322 -59 37 C-60.125 33.625 -60.125 33.625 -60 30 C-52.78026953 16.40636522 -30.89334048 8.33441263 -17 4 C-3.91666667 0 -3.91666667 0 0 0 Z " fill="#D78C1D" transform="translate(192,223)"/>
<path d="M0 0 C21.78 0 43.56 0 66 0 C61.65504973 19.55227623 55.08145729 44.55196912 39 58 C36.34017383 59.58371329 35.27841686 60.00605254 32.125 59.9375 C23.22584217 57.26775265 18.49740659 48.46588646 14.2109375 40.80078125 C0 13.34925661 0 13.34925661 0 0 Z " fill="#E69C25" transform="translate(223,320)"/>
<path d="M0 0 C45.76710098 12.04397394 45.76710098 12.04397394 59.0625 28.5625 C60.36705354 31.95433921 60.1737485 33.54779852 59 37 C50.46059166 51.05917799 28.99794774 58.29501991 14 63 C9.38 63.99 4.76 64.98 0 66 C0 44.22 0 22.44 0 0 Z " fill="#E69C24" transform="translate(320,223)"/>
<path d="M0 0 C0.495 0.99 0.495 0.99 1 2 C0.13022496 4.49376059 -0.8045923 6.84256392 -1.875 9.25 C-2.19162598 9.96438232 -2.50825195 10.67876465 -2.83447266 11.41479492 C-15.71441001 39.57057477 -38.31418582 60.11439604 -66 73 C-67.62228516 73.88171875 -67.62228516 73.88171875 -69.27734375 74.78125 C-72 76 -72 76 -75 75 C-74.59910156 74.24203125 -74.19820313 73.4840625 -73.78515625 72.703125 C-69.44609709 64.0053284 -66.22213581 55.12871882 -63.25 45.875 C-62.87367432 44.7087207 -62.49734863 43.54244141 -62.10961914 42.34082031 C-59.68289535 34.6355255 -57.69886034 26.89691825 -56 19 C-55.20803223 18.83169678 -54.41606445 18.66339355 -53.60009766 18.48999023 C-35.02185713 14.48120251 -16.97977198 8.60295883 0 0 Z " fill="#ECA127" transform="translate(372,297)"/>
<path d="M0 0 C0.51570557 0.235979 1.03141113 0.47195801 1.56274414 0.71508789 C19.42486941 8.81318643 37.7477526 15.11998853 57 19 C57.12375 19.64839844 57.2475 20.29679687 57.375 20.96484375 C60.91777947 37.81518859 66.38641901 54.47885182 73.65234375 70.0859375 C75 73 75 73 76 76 C49.0273264 69.90734902 24.91439939 46.85678487 10.44140625 24.17578125 C0 6.96471774 0 6.96471774 0 0 Z " fill="#DF9521" transform="translate(139,297)"/>
<path d="M0 0 C4.64113248 0.62718006 8.50123369 2.52025789 12.625 4.625 C13.68787231 5.16459351 13.68787231 5.16459351 14.7722168 5.71508789 C40.67903279 19.05764146 63.97213731 41.29537575 74.15625 69.1640625 C74.84713654 71.43503214 75.44483404 73.6938794 76 76 C74.87207031 75.50371094 73.74414062 75.00742188 72.58203125 74.49609375 C55.17101706 66.93846273 37.58206451 60.92098609 19 57 C18.81566406 56.08605469 18.63132812 55.17210937 18.44140625 54.23046875 C14.49948634 35.7399708 8.82128812 16.77774407 0 0 Z " fill="#DF9521" transform="translate(297,139)"/>
<path d="M0 0 C-0.51949219 1.05316406 -1.03898437 2.10632813 -1.57421875 3.19140625 C-9.87278316 20.24513555 -14.58885273 37.61298581 -19 56 C-19.91394531 56.18433594 -20.82789063 56.36867187 -21.76953125 56.55859375 C-40.2600292 60.50051366 -59.22225593 66.17871188 -76 75 C-71.83344281 56.55430409 -59.67358259 41.47750388 -47 28 C-46.21109375 27.11441406 -46.21109375 27.11441406 -45.40625 26.2109375 C-38.48388676 18.75880156 -10.56782731 -5.28391365 0 0 Z " fill="#D18318" transform="translate(215,140)"/>
</svg>
