<?xml version="1.0" encoding="UTF-8"?>
<svg version="1.1" xmlns="http://www.w3.org/2000/svg" width="512" height="512">
<path d="M0 0 C0.80232056 0.00215515 1.60464111 0.0043103 2.43127441 0.00653076 C60.55269916 0.25557734 114.80659412 22.24174763 157.6015625 61.32421875 C159.36330083 62.9085382 161.14338787 64.40640998 163 65.875 C165.94983958 68.43152764 168.39755274 71.14259484 170.91796875 74.11328125 C172.17917676 75.57732271 173.47404543 77.01303632 174.80078125 78.41796875 C185.79475065 90.09529274 194.91996072 103.58174714 202.79931641 117.52099609 C203.79335609 119.27864988 204.80860561 121.02425429 205.82421875 122.76953125 C211.17517611 132.18899592 215.08156698 142.11095828 218.9296875 152.22265625 C219.26782471 153.10904785 219.60596191 153.99543945 219.9543457 154.90869141 C220.8125 157.3125 220.8125 157.3125 221.72265625 160.90234375 C222.5908233 163.55585017 222.5908233 163.55585017 225.31640625 164.34375 C226.32574219 164.4984375 227.33507812 164.653125 228.375 164.8125 C238.43061788 166.90291519 246.10132612 172.75185392 251.8125 181.3125 C257.08382433 190.41623534 256.39636087 200.14667479 256.34375 210.3125 C256.34644967 212.15755416 256.35033603 214.00260692 256.35534668 215.84765625 C256.3612194 219.70065963 256.352751 223.55329021 256.33398438 227.40625 C256.31119614 232.3219979 256.32433123 237.23687197 256.34827423 242.15258789 C256.36279269 245.95839918 256.35809863 249.76400647 256.34776306 253.56982422 C256.34511245 255.38134873 256.34830627 257.19289234 256.35768127 259.00439453 C256.41413533 272.9757585 255.25943629 282.6402108 245.16015625 293.1171875 C241.12252587 296.89280859 237.55852839 300.07020338 231.890625 300.5703125 C228.21369376 300.92702971 225.97895279 301.36425196 222.8125 303.3125 C220.17891894 307.63645542 219.05564747 312.69388613 217.6328125 317.51171875 C211.13554171 339.31342547 197.87231294 359.62849396 183.8125 377.3125 C183.09707031 378.22 182.38164062 379.1275 181.64453125 380.0625 C174.34642531 389.15606917 166.69973896 398.23661808 157.71484375 405.71484375 C156.35900658 406.85352425 155.04200854 408.03913047 153.75390625 409.25390625 C147.15235266 415.43116339 147.15235266 415.43116339 141.8125 415.3125 C141.07773437 414.88066406 140.34296875 414.44882812 139.5859375 414.00390625 C136.94606542 413.03900008 136.94606542 413.03900008 135.13061523 414.08520508 C133.22423319 415.37777713 131.42315821 416.74822185 129.625 418.1875 C122.99784483 423.3125 122.99784483 423.3125 120.8125 423.3125 C121.06 424.364375 121.3075 425.41625 121.5625 426.5 C121.8125 430.3125 121.8125 430.3125 120.359375 432.75 C117.0361122 436.09365092 113.49151347 438.00375713 109.3125 440.125 C108.05324707 440.77239136 108.05324707 440.77239136 106.76855469 441.43286133 C84.46376166 452.6785053 60.44523399 460.27805478 35.8125 464.3125 C35.1417041 464.42964355 34.4709082 464.54678711 33.77978516 464.66748047 C-23.78020557 474.37865464 -86.12437182 458.48843477 -133.62841797 425.35253906 C-142.23414938 419.22510218 -150.18076022 412.42029153 -157.9765625 405.30078125 C-159.73830083 403.7164618 -161.51838787 402.21859002 -163.375 400.75 C-166.32483958 398.19347236 -168.77255274 395.48240516 -171.29296875 392.51171875 C-172.55417676 391.04767729 -173.84904543 389.61196368 -175.17578125 388.20703125 C-186.16975065 376.52970726 -195.29496072 363.04325286 -203.17431641 349.10400391 C-204.16835609 347.34635012 -205.18360561 345.60074571 -206.19921875 343.85546875 C-211.55017611 334.43600408 -215.45656698 324.51404172 -219.3046875 314.40234375 C-219.64282471 313.51595215 -219.98096191 312.62956055 -220.3293457 311.71630859 C-221.1875 309.3125 -221.1875 309.3125 -222.09765625 305.72265625 C-222.9658233 303.06914983 -222.9658233 303.06914983 -225.69140625 302.28125 C-226.70074219 302.1265625 -227.71007812 301.971875 -228.75 301.8125 C-238.80561788 299.72208481 -246.47632612 293.87314608 -252.1875 285.3125 C-257.45882433 276.20876466 -256.77136087 266.47832521 -256.71875 256.3125 C-256.72144967 254.46744584 -256.72533603 252.62239308 -256.73034668 250.77734375 C-256.7362194 246.92434037 -256.727751 243.07170979 -256.70898438 239.21875 C-256.68619614 234.3030021 -256.69933123 229.38812803 -256.72327423 224.47241211 C-256.73779269 220.66660082 -256.73309863 216.86099353 -256.72276306 213.05517578 C-256.72011245 211.24365127 -256.72330627 209.43210766 -256.73268127 207.62060547 C-256.78913533 193.6492415 -255.63443629 183.9847892 -245.53515625 173.5078125 C-241.52768276 169.76039137 -237.95565344 166.49229887 -232.30078125 166.125 C-228.48838924 165.81886062 -226.42004882 165.42239335 -223.1875 163.3125 C-219.72017834 157.46673232 -218.09499169 150.60949509 -216.11425781 144.15380859 C-207.04238841 116.34073795 -187.20497307 89.29914333 -166.1875 69.3125 C-165.40375 68.52875 -164.62 67.745 -163.8125 66.9375 C-162.94625 66.07125 -162.08 65.205 -161.1875 64.3125 C-160.25357422 63.32636719 -160.25357422 63.32636719 -159.30078125 62.3203125 C-143.26992443 45.68506072 -143.26992443 45.68506072 -133.1875 45.3125 C-132.53797363 45.67666016 -131.88844727 46.04082031 -131.21923828 46.41601562 C-129.23409467 47.55746721 -129.23409467 47.55746721 -127.26464844 46.71679688 C-125.14009728 45.43679434 -123.02715272 44.14899167 -120.9375 42.8125 C-120.19242188 42.37679687 -119.44734375 41.94109375 -118.6796875 41.4921875 C-116.64231447 40.21603077 -114.8730819 39.02822298 -113.1875 37.3125 C-112.87498325 34.29154025 -112.87498325 34.29154025 -113.1875 31.3125 C-110.33837901 26.37451569 -106.30948898 24.42434876 -101.3125 22.125 C-100.4980542 21.74698242 -99.6836084 21.36896484 -98.84448242 20.97949219 C-67.57860396 6.98693182 -34.2048716 -0.16739887 0 0 Z " fill="#010202" transform="translate(256.1875,22.6875)"/>
<path d="M0 0 C0.76314061 -0.00350607 1.52628122 -0.00701215 2.3125473 -0.01062447 C4.87859387 -0.019954 7.44441428 -0.01501116 10.01047039 -0.01015663 C11.86524617 -0.01389211 13.72002038 -0.01849322 15.57479209 -0.02388728 C20.67877663 -0.03614536 25.78269577 -0.03585351 30.88669169 -0.03349853 C36.3885227 -0.03309107 41.89033254 -0.04412269 47.39215374 -0.05361366 C58.17392155 -0.07023996 68.9556675 -0.07572394 79.73744706 -0.07683842 C88.49965844 -0.07778811 97.2618626 -0.08189444 106.02407169 -0.08823967 C126.81391154 -0.10298886 147.60374703 -0.11528893 168.39359283 -0.11424255 C169.39102577 -0.11419582 169.39102577 -0.11419582 170.40860886 -0.11414814 C173.77891821 -0.11398192 177.14922755 -0.11378384 180.51953689 -0.11357872 C181.18889846 -0.11353883 181.85826003 -0.11349894 182.54790529 -0.11345784 C183.90151776 -0.11337697 185.25513022 -0.11329337 186.60874269 -0.11320706 C207.66908639 -0.11198153 228.7293657 -0.12699464 249.78969097 -0.15435219 C273.44816482 -0.18507205 297.10660649 -0.2022594 320.76510447 -0.20042574 C333.29280311 -0.1997612 345.82042913 -0.20528164 358.34811115 -0.22678185 C369.01385689 -0.24496897 379.67949709 -0.24936127 390.3452516 -0.235763 C395.78824253 -0.22922094 401.23103083 -0.22916086 406.67400265 -0.2464695 C411.65630146 -0.26215041 416.63823614 -0.25938755 421.6205258 -0.24190123 C423.42333474 -0.23882035 425.22617051 -0.24250452 427.02894781 -0.25362138 C429.4800917 -0.26773584 431.92995714 -0.25716235 434.38105774 -0.24050903 C435.43032289 -0.25541357 435.43032289 -0.25541357 436.50078532 -0.27061921 C442.68021531 -0.18189091 447.76227342 1.99895487 452.40272808 6.00336266 C452.84874371 6.56152672 453.29475933 7.11969078 453.75429058 7.69476891 C454.44651714 8.52814781 454.44651714 8.52814781 455.15272808 9.37836266 C458.21445827 14.06846528 458.63763088 18.12296353 458.66981792 23.67450523 C458.67653515 24.40365639 458.68325237 25.13280754 458.69017315 25.88405418 C458.70911394 28.28587288 458.71307548 30.68741149 458.71522808 33.08930016 C458.72165931 34.76692887 458.72838791 36.44455646 458.7354002 38.12218285 C458.74736357 41.63672039 458.75108205 45.15115971 458.74989605 48.66571617 C458.74969304 53.15466235 458.77697995 57.64297412 458.81144047 62.13177013 C458.83375224 65.59691281 458.83773227 69.06190392 458.8366766 72.52711105 C458.8390267 74.18121779 458.84781681 75.83532907 458.86334133 77.48936462 C459.01135159 94.88946666 459.01135159 94.88946666 452.63319683 102.28070641 C452.07503277 102.72672203 451.51686871 103.17273766 450.94179058 103.63226891 C450.38620464 104.09375328 449.83061871 104.55523766 449.25819683 105.03070641 C444.56226955 108.09623898 440.25593359 108.5465216 434.75858116 108.51453781 C433.99544055 108.51804389 433.23229995 108.52154996 432.44603387 108.52516228 C429.87998729 108.53449181 427.31416689 108.52954898 424.74811077 108.52469444 C422.89333499 108.52842992 421.03856078 108.53303103 419.18378907 108.53842509 C414.07980453 108.55068317 408.97588539 108.55039132 403.87188947 108.54803634 C398.37005846 108.54762888 392.86824862 108.5586605 387.36642742 108.56815147 C376.58465961 108.58477777 365.80291366 108.59026175 355.0211341 108.59137623 C346.25892272 108.59232592 337.49671856 108.59643225 328.73450947 108.60277748 C307.94466963 108.61752667 287.15483413 108.62982674 266.36498833 108.62878036 C265.36755539 108.62873363 265.36755539 108.62873363 264.3499723 108.62868595 C260.97966295 108.62851973 257.60935361 108.62832165 254.23904427 108.62811653 C253.5696827 108.62807664 252.90032113 108.62803675 252.21067587 108.62799565 C250.8570634 108.62791478 249.50345094 108.62783118 248.14983847 108.62774487 C227.08949477 108.62651934 206.02921547 108.64153245 184.96889019 108.66889 C161.31041634 108.69960986 137.65197467 108.71679721 113.99347669 108.71496356 C101.46577805 108.71429901 88.93815203 108.71981945 76.41047001 108.74131966 C65.74472427 108.75950678 55.07908407 108.76389908 44.41332956 108.75030081 C38.97033863 108.74375875 33.52755033 108.74369868 28.08457851 108.76100731 C23.1022797 108.77668822 18.12034502 108.77392537 13.13805536 108.75643905 C11.33524643 108.75335816 9.53241065 108.75704233 7.72963335 108.7681592 C5.27848946 108.78227365 2.82862402 108.77170016 0.37752342 108.75504684 C-0.32198668 108.7649832 -1.02149678 108.77491956 -1.74220416 108.78515702 C-7.92362841 108.69640009 -12.9677445 106.50050951 -17.64414692 102.54633141 C-18.09016254 101.99719078 -18.53617817 101.44805016 -18.99570942 100.88226891 C-19.45719379 100.33828453 -19.91867817 99.79430016 -20.39414692 99.23383141 C-23.44506117 94.31738997 -23.87776996 89.50284111 -23.91123676 83.81830406 C-23.91795399 83.09876045 -23.92467121 82.37921684 -23.93159199 81.63786888 C-23.95049262 79.27395161 -23.95449202 76.91031941 -23.95664692 74.54633141 C-23.96308002 72.89255217 -23.96980876 71.23877406 -23.97681904 69.58499718 C-23.9887717 66.12351405 -23.9925019 62.66213058 -23.99131489 59.20062828 C-23.99111173 54.7800884 -24.0184189 50.36019165 -24.05285931 45.93980408 C-24.07517062 42.52527533 -24.07915115 39.11090039 -24.07809544 35.69630623 C-24.08044483 34.06731893 -24.08923088 32.43832697 -24.10476017 30.809412 C-24.25325726 13.6256353 -24.25325726 13.6256353 -17.87461567 6.23383141 C-17.31645161 5.78781578 -16.75828754 5.34180016 -16.18320942 4.88226891 C-15.62762348 4.42078453 -15.07203754 3.95930016 -14.49961567 3.48383141 C-9.80368839 0.41829883 -5.49735243 -0.03198379 0 0 Z " fill="#EDCF75" transform="translate(38.62070941925049,201.74273109436035)"/>
<path d="M0 0 C30.47243605 -0.06843449 60.94485802 -0.12152732 91.41735289 -0.15319599 C95.01472627 -0.15694812 98.6120995 -0.16083108 102.20947266 -0.16479492 C103.28373318 -0.16597532 103.28373318 -0.16597532 104.37969594 -0.16717956 C115.97661469 -0.18023428 127.57348885 -0.20388848 139.17038114 -0.23145839 C151.06943791 -0.25951077 162.96847131 -0.2761759 174.86755979 -0.28226548 C181.55127688 -0.28601283 188.23491276 -0.29539945 194.91859818 -0.31719017 C201.20743903 -0.33752778 207.49613686 -0.34383926 213.78500748 -0.33932304 C216.09490231 -0.34014946 218.40480185 -0.34613119 220.71466827 -0.35761642 C223.86567026 -0.37251759 227.01613055 -0.36896197 230.16714478 -0.36076355 C231.08349532 -0.36950207 231.99984586 -0.3782406 232.9439646 -0.38724393 C238.89336703 -0.34533559 243.24810658 0.51859183 247.828125 4.6484375 C248.29734375 5.21820313 248.7665625 5.78796875 249.25 6.375 C249.72953125 6.93960938 250.2090625 7.50421875 250.703125 8.0859375 C253.86374707 12.75071104 254.2582169 16.84441039 254.29052734 22.41723633 C254.29724457 23.14638748 254.30396179 23.87553864 254.31088257 24.62678528 C254.32982336 27.02860397 254.3337849 29.43014259 254.3359375 31.83203125 C254.34236873 33.50965996 254.34909733 35.18728756 254.35610962 36.86491394 C254.36807299 40.37945148 254.37179147 43.89389081 254.37060547 47.40844727 C254.37040246 51.89739344 254.39768936 56.38570522 254.43214989 60.87450123 C254.45446166 64.3396439 254.45844169 67.80463501 254.45738602 71.26984215 C254.45973612 72.92394888 254.46852623 74.57806017 254.48405075 76.23209572 C254.63206101 93.63219776 254.63206101 93.63219776 248.25390625 101.0234375 C247.69574219 101.46945312 247.13757813 101.91546875 246.5625 102.375 C246.00691406 102.83648437 245.45132813 103.29796875 244.87890625 103.7734375 C239.85995681 107.04984109 235.15301413 107.298821 229.29032898 107.30107117 C228.41373762 107.30913011 227.53714627 107.31718905 226.63399154 107.3254922 C223.69697735 107.34985798 220.76009392 107.35992744 217.82299805 107.36987305 C215.71703599 107.38404296 213.61107885 107.39895902 211.50512695 107.41456604 C204.59069911 107.46176825 197.67625911 107.48748552 190.76171875 107.51171875 C188.38047566 107.52112738 185.9992329 107.53062183 183.61799049 107.54020119 C173.7141049 107.57868545 163.8102278 107.61190069 153.90628338 107.63057232 C139.71486637 107.65739293 125.52435993 107.71499461 111.33327264 107.81633729 C101.35265887 107.8851755 91.37228734 107.91953431 81.39144164 107.92813712 C75.43060923 107.93414277 69.47071397 107.95514079 63.51013756 108.01270103 C57.9028825 108.06603257 52.2971545 108.07662126 46.6897049 108.05455589 C44.6337702 108.05383927 42.57776303 108.06848976 40.52206612 108.09976578 C25.03093321 108.32243925 25.03093321 108.32243925 20.07090187 105.09272194 C17.99196588 102.81651284 16.4995304 100.68421768 15 98 C13.93774501 96.41650228 12.87527548 94.83314844 11.8125 93.25 C7.69979317 86.03867843 3.01213225 77.4875984 4 69 C5.15023471 65.29969567 6.55806596 61.72009231 8 58.125 C8.3815625 57.15046875 8.763125 56.1759375 9.15625 55.171875 C10.09520267 52.77754568 11.04330568 50.3872831 12 48 C12.66 48 13.32 48 14 48 C14.40839111 49.14065918 14.81678223 50.28131836 15.23754883 51.45654297 C16.75381234 55.6832111 18.28321248 59.90502392 19.81665039 64.12548828 C20.47878202 65.95361441 21.13733253 67.78304169 21.79223633 69.61376953 C22.73363206 72.24340637 23.68776246 74.86811128 24.64453125 77.4921875 C24.9352803 78.31306854 25.22602936 79.13394958 25.52558899 79.97970581 C25.80565292 80.74034332 26.08571686 81.50098083 26.37426758 82.28466797 C26.61631424 82.95529266 26.8583609 83.62591736 27.10774231 84.31686401 C28.01728 86.35481728 28.01728 86.35481728 31 88 C34.51305609 88.32026414 34.51305609 88.32026414 38 87 C41.65891838 80.7151122 44.06053578 73.89366198 46.58203125 67.08984375 C47.00046799 65.96357071 47.41890472 64.83729767 47.85002136 63.67689514 C48.72749894 61.30699634 49.60223284 58.93608004 50.47436523 56.56420898 C51.81149559 52.94022223 53.17021152 49.32478471 54.52929688 45.70898438 C55.38155639 43.3989344 56.23251285 41.08840318 57.08203125 38.77734375 C57.49024612 37.70113266 57.898461 36.62492157 58.31904602 35.51609802 C61.10095711 27.85439647 61.10095711 27.85439647 60 20 C57.11538937 17.6656442 57.11538937 17.6656442 53.5 18.0625 C49.94908615 18.62535002 49.94908615 18.62535002 48.47729492 21.04956055 C46.66572174 24.66761738 45.24429209 28.34485696 43.86328125 32.14453125 C43.57897751 32.91431808 43.29467377 33.68410492 43.00175476 34.47721863 C42.10057991 36.92059233 41.20644838 39.36647434 40.3125 41.8125 C39.70033407 43.47608238 39.08770874 45.13949578 38.47460938 46.80273438 C36.97774783 50.86655281 35.48719487 54.93263453 34 59 C31.79954826 55.69932238 30.60837676 52.37678201 29.3203125 48.6640625 C28.79850362 47.1925925 28.27635759 45.72124202 27.75390625 44.25 C26.93813571 41.93856838 26.12541269 39.62618433 25.31884766 37.31152344 C24.53638597 35.07168504 23.74169633 32.8364822 22.9453125 30.6015625 C22.7097464 29.91494537 22.4741803 29.22832825 22.23147583 28.52090454 C20.74498898 24.37880911 19.0758509 21.16880861 16 18 C13 17.16666667 13 17.16666667 10 18 C5.90003606 22.10816387 4.21224318 26.97738819 2.25 32.3125 C1.93417969 33.14845703 1.61835938 33.98441406 1.29296875 34.84570312 C0.5203913 36.89420395 -0.24362333 38.94547434 -1 41 C-1.66 40.67 -2.32 40.34 -3 40 C-3.26424771 9.54240233 -3.26424771 9.54240233 0 0 Z " fill="#F5ED86" transform="translate(243,203)"/>
<path d="M0 0 C1.12020035 -0.01582626 2.2404007 -0.03165253 3.39454651 -0.04795837 C4.63452393 -0.06007355 5.87450134 -0.07218872 7.15205383 -0.08467102 C8.44954056 -0.10087997 9.74702728 -0.11708893 11.08383179 -0.13378906 C23.06147696 -0.27858049 35.04017117 -0.35355837 47.01851177 -0.41270733 C55.87505036 -0.45728189 64.73004055 -0.53440701 73.58588666 -0.65429181 C79.81012435 -0.7357142 86.03393786 -0.77884744 92.25868541 -0.79400951 C95.97759909 -0.80417685 99.69456436 -0.8314664 103.4128933 -0.90032005 C107.56521261 -0.97635984 111.7138935 -0.9733269 115.86689758 -0.96357727 C117.09675385 -0.99795898 118.32661011 -1.0323407 119.59373474 -1.06776428 C122.96282115 -1.02264172 125.64126673 -0.89763952 128.83296204 0.18754578 C131.68063762 3.19905891 133.25691968 6.38520014 134.83296204 10.18754578 C135.3793634 11.23458679 135.92576477 12.28162781 136.48872375 13.36039734 C137.90498668 16.38183063 139.31734362 19.4041965 140.70796204 22.43754578 C141.2239093 23.55766052 141.73985657 24.67777527 142.2714386 25.83183289 C154.83296204 53.53636272 154.83296204 53.53636272 154.83296204 59.18754578 C93.45296204 59.18754578 32.07296204 59.18754578 -31.16703796 59.18754578 C-27.36765624 47.78940061 -23.63555047 37.07809856 -18.66703796 26.25004578 C-18.11816404 25.0283534 -17.56998772 23.80634737 -17.02250671 22.58403015 C-6.82512656 0.08408278 -6.82512656 0.08408278 0 0 Z " fill="#A2DDFD" transform="translate(194.1670379638672,127.81245422363281)"/>
<path d="M0 0 C60.72 0 121.44 0 184 0 C181.7471626 10.13776829 181.7471626 10.13776829 179.8984375 14.75 C179.49455811 15.76263916 179.09067871 16.77527832 178.67456055 17.81860352 C178.24570557 18.86846436 177.81685059 19.9183252 177.375 21 C176.9313208 22.09562256 176.4876416 23.19124512 176.03051758 24.32006836 C173.38247703 30.79616682 170.64726015 37.22243563 167.6875 43.5625 C167.23673096 44.53219727 167.23673096 44.53219727 166.77685547 45.52148438 C166.20846037 46.70753757 165.61842231 47.88361711 165.00107861 49.04494476 C163.96611523 50.99077354 163.96611523 50.99077354 163.1744051 53.07169342 C162.02354268 55.5152459 160.98131869 57.14887243 159 59 C154.72753859 60.19183245 150.54111768 60.01089574 146.1315918 59.90820312 C144.82388321 59.90937134 143.51617462 59.91053955 142.1688385 59.91174316 C138.58985291 59.91403598 135.0130181 59.86705348 131.43453193 59.8111515 C127.69237197 59.7610931 123.950161 59.75643807 120.2077179 59.74694824 C113.12421601 59.72209659 106.04170351 59.65646765 98.95863706 59.57615232 C90.89351839 59.48668942 82.8283521 59.44273655 74.76286066 59.40258884 C58.17466151 59.31899876 41.58745707 59.17831369 25 59 C23.72583484 56.79823362 22.45503475 54.59463378 21.18603516 52.38989258 C20.82941299 51.77442818 20.47279083 51.15896378 20.10536194 50.52484894 C16.78855084 44.75174372 14.0062178 38.80272204 11.375 32.6875 C10.90989014 31.61806152 10.44478027 30.54862305 9.96557617 29.44677734 C0 6.26042371 0 6.26042371 0 0 Z " fill="#A2DDFD" transform="translate(164,325)"/>
<path d="M0 0 C32.34 0 64.68 0 98 0 C95.38400388 13.07998061 89.12010522 26.02196077 82.48664856 37.54847717 C80.81684014 40.47321177 79.31648317 43.42279031 77.88896179 46.47215271 C72.28623648 57.5858569 72.28623648 57.5858569 66.81277847 59.9412117 C60.47017017 61.39119422 54.03311157 60.95221554 47.58203125 60.66015625 C45.51277087 60.62840218 43.44338165 60.60422539 41.37394714 60.58726501 C35.95677557 60.52270169 30.54749822 60.35609066 25.13342285 60.16729736 C19.59719672 59.99259234 14.05967917 59.91558471 8.52148438 59.83007812 C-2.32245794 59.6483835 -13.16056989 59.35872569 -24 59 C-23.74250095 58.43043013 -23.48500191 57.86086025 -23.21969986 57.27403069 C-22.03899698 54.66085037 -20.85982029 52.04698403 -19.68066406 49.43310547 C-19.27562653 48.53726242 -18.87058899 47.64141937 -18.45327759 46.71842957 C-15.38571057 39.91422408 -12.48688069 33.06960201 -9.75 26.125 C-9.35554688 25.14015625 -8.96109375 24.1553125 -8.5546875 23.140625 C-5.51079683 15.48116156 -2.77635904 7.77380532 0 0 Z " fill="#A2DDFD" transform="translate(364,325)"/>
<path d="M0 0 C32.34 0 64.68 0 98 0 C100.97 8.25 103.94 16.5 107 25 C108.88433179 29.55048571 110.76721337 34.03033026 112.8125 38.5 C113.48829102 40.00626953 113.48829102 40.00626953 114.17773438 41.54296875 C115.00732951 43.3905387 115.84037109 45.23657068 116.67895508 47.08007812 C117.82353498 49.60995719 118.95554219 52.14476707 120.08256531 54.68249512 C120.44189494 55.49145988 120.80122458 56.30042465 121.17144299 57.1339035 C121.4448668 57.74971535 121.71829062 58.36552719 122 59 C110.12592605 59.20870824 98.25228968 59.36853443 86.37675381 59.46630955 C80.86208157 59.51324243 75.34866583 59.57687708 69.8347168 59.67895508 C64.5113145 59.7768866 59.18911901 59.83058698 53.86488533 59.85389519 C51.83577538 59.87050034 49.80673012 59.90292891 47.7781353 59.95157051 C31.91035751 60.31684786 31.91035751 60.31684786 27.27381897 57.12078857 C25.43876829 54.81840585 24.20048316 52.67930855 23 50 C22.38584229 49.06559082 21.77168457 48.13118164 21.13891602 47.16845703 C19.60194213 44.49331511 18.0687568 41.81760877 16.5625 39.125 C16.00264404 38.13064941 15.44278809 37.13629883 14.8659668 36.11181641 C10.16032128 27.59838884 6.21147307 18.87920219 2.70556641 9.81152344 C2.09758112 8.250537 1.44902018 6.70546488 0.79296875 5.1640625 C0 3 0 3 0 0 Z " fill="#79CDF9" transform="translate(50,325)"/>
<path d="M0 0 C0.85667267 0.00359528 1.71334534 0.00719055 2.59597778 0.01089478 C3.4934523 0.01074875 4.39092682 0.01060272 5.31559753 0.01045227 C8.29702123 0.01115175 11.27838329 0.01894575 14.25979614 0.02676392 C16.32102932 0.02862797 18.38226293 0.03005193 20.4434967 0.03105164 C25.88017999 0.03487779 31.31683675 0.04470891 36.75350952 0.05575562 C42.29661704 0.06596764 47.83972882 0.07054881 53.38284302 0.07559204 C64.26762033 0.08633109 75.15237791 0.10340868 86.03713989 0.12442017 C85.78362983 0.6537553 85.53011976 1.18309044 85.26892757 1.72846603 C84.0987084 4.17540103 82.93204673 6.62401678 81.76541138 9.07266235 C81.36675621 9.90490326 80.96810104 10.73714417 80.55736542 11.59460449 C77.01877279 19.03264237 73.88660262 26.59327897 70.91384888 34.27236938 C70.08190666 36.42020222 69.23894473 38.56348236 68.39456177 40.70645142 C66.0061462 46.81063184 63.84232251 52.806281 62.03713989 59.12442017 C29.69713989 59.12442017 -2.64286011 59.12442017 -35.96286011 59.12442017 C-33.70919528 48.98292843 -33.70919528 48.98292843 -32.15036011 45.50332642 C-31.80223267 44.72207397 -31.45410522 43.94082153 -31.09542847 43.13589478 C-30.72168091 42.32773315 -30.34793335 41.51957153 -29.96286011 40.68692017 C-29.56913208 39.82655151 -29.17540405 38.96618286 -28.76974487 38.07974243 C-11.06225157 0.01960972 -11.06225157 0.01960972 0 0 Z " fill="#79CDF9" transform="translate(85.96286010742188,127.87557983398438)"/>
<path d="M0 0 C11.87407395 -0.20870824 23.74771032 -0.36853443 35.62324619 -0.46630955 C41.13791843 -0.51324243 46.65133417 -0.57687708 52.1652832 -0.67895508 C57.4886855 -0.7768866 62.81088099 -0.83058698 68.13511467 -0.85389519 C70.16422462 -0.87050034 72.19326988 -0.90292891 74.2218647 -0.95157051 C90.09984745 -1.31708278 90.09984745 -1.31708278 94.73510742 1.89582825 C96.5739329 4.20707163 97.78216906 6.31916878 99 9 C99.98398739 10.59817721 100.97993813 12.1891032 101.9921875 13.76953125 C102.96333057 15.44464558 103.92398937 17.12587448 104.875 18.8125 C105.38530762 19.71323242 105.89561523 20.61396484 106.42138672 21.54199219 C109.92203457 27.82587927 113.14258617 34.20467342 116.125 40.75 C116.67389893 41.94459839 116.67389893 41.94459839 117.23388672 43.16333008 C117.57178223 43.9292749 117.90967773 44.69521973 118.2578125 45.484375 C118.5480127 46.14147461 118.83821289 46.79857422 119.13720703 47.47558594 C120.4173424 51.22108671 121.14134106 55.13603476 122 59 C89.66 59 57.32 59 24 59 C22.02 53.06 20.04 47.12 18 41 C16.23976861 36.56561908 14.4578479 32.18531865 12.5625 27.8125 C11.90411133 26.26272461 11.90411133 26.26272461 11.23242188 24.68164062 C8.70090304 18.76745738 6.05018011 12.91688753 3.32006836 7.0925293 C2.8387508 6.0635062 2.8387508 6.0635062 2.34770966 5.01369476 C1.56576072 3.34217255 0.78296882 1.67104472 0 0 Z " fill="#A2DDFD" transform="translate(340,128)"/>
<path d="M0 0 C-0.76183594 0.73863281 -1.52367187 1.47726563 -2.30859375 2.23828125 C-9.03391014 8.81906138 -15.19190455 15.58265517 -21 23 C-22.04601338 24.29496728 -23.09295548 25.58918472 -24.140625 26.8828125 C-35.77127963 41.38343349 -45.97382305 56.75288148 -55 73 C-84.04 73 -113.08 73 -143 73 C-141.22952105 69.4590421 -139.96484798 67.7083016 -137.25390625 64.98828125 C-136.50367188 64.23401855 -135.7534375 63.47975586 -134.98046875 62.70263672 C-134.18253906 61.9138916 -133.38460937 61.12514648 -132.5625 60.3125 C-131.75296875 59.50828613 -130.9434375 58.70407227 -130.109375 57.87548828 C-113.97985318 42 -113.97985318 42 -110 42 C-109.83126522 40.56274129 -109.66509263 39.12518162 -109.5 37.6875 C-109.36078125 36.48673828 -109.36078125 36.48673828 -109.21875 35.26171875 C-108.95186537 32.88103445 -108.95186537 32.88103445 -109 30 C-107.56298828 28.74145508 -107.56298828 28.74145508 -105.5703125 27.51953125 C-104.85746094 27.07802734 -104.14460938 26.63652344 -103.41015625 26.18164062 C-102.65605469 25.72982422 -101.90195313 25.27800781 -101.125 24.8125 C-100.37863281 24.34908203 -99.63226563 23.88566406 -98.86328125 23.40820312 C-93.29169735 20 -93.29169735 20 -91 20 C-91 20.66 -91 21.32 -91 22 C-83.90532595 23.50417849 -79.87827307 22.5894076 -73.625 19.125 C-55.9084862 10.06770129 -36.57698907 4.34689676 -17 1 C-15.06447266 0.64808594 -15.06447266 0.64808594 -13.08984375 0.2890625 C-3.8932633 -1.27934657 -3.8932633 -1.27934657 0 0 Z " fill="#A1DCFB" transform="translate(236,40)"/>
<path d="M0 0 C29.37 0 58.74 0 89 0 C82.23820517 7.88876064 82.23820517 7.88876064 79.30859375 10.82421875 C78.35629883 11.77844727 78.35629883 11.77844727 77.38476562 12.75195312 C76.74216797 13.39068359 76.09957031 14.02941406 75.4375 14.6875 C74.79103516 15.33783203 74.14457031 15.98816406 73.47851562 16.65820312 C70.76618098 19.36501929 68.1343697 21.89683293 65.08984375 24.234375 C62.6417313 25.95176089 62.6417313 25.95176089 62.125 29.5625 C61.79955544 32.98282246 61.79955544 32.98282246 63 36 C61.12952125 37.44371903 59.25399303 38.87993439 57.375 40.3125 C56.33085937 41.11300781 55.28671875 41.91351563 54.2109375 42.73828125 C51.22916096 44.83858371 48.3023492 46.46782897 45 48 C44.62875 47.505 44.2575 47.01 43.875 46.5 C41.10114507 44.28091605 39.51936958 44.61702164 36 45 C33.05168084 46.23984101 30.33102671 47.8424329 27.5625 49.4375 C4.02396539 62.39751837 -25.75434183 73.477994 -53 73 C-51.60286388 69.80554305 -49.97467102 67.81065188 -47.4375 65.4375 C-43.036189 61.13067153 -39.16840563 56.53021495 -35.3515625 51.70214844 C-33.86120893 49.82520749 -32.35191398 47.96421717 -30.84375 46.1015625 C-19.22311489 31.6019487 -9.02288071 16.24118528 0 0 Z " fill="#79CCF8" transform="translate(331,399)"/>
<path d="M0 0 C29.04 0 58.08 0 88 0 C90.64 4.62 93.28 9.24 96 14 C98.02506899 17.1487201 100.05294869 20.24339834 102.1875 23.3125 C103.01314453 24.50697754 103.01314453 24.50697754 103.85546875 25.72558594 C114.2474071 40.63447476 125.28856776 55.62442711 138.37890625 68.30078125 C141 71 141 71 141 73 C132.35790892 73.54902696 124.3805123 71.96101856 116 70 C115.15211914 69.80664062 114.30423828 69.61328125 113.43066406 69.4140625 C74.83059558 60.48409307 40.49488615 41.40833187 12 14 C11.4426416 13.46455566 10.8852832 12.92911133 10.31103516 12.37744141 C8.61544277 10.73931049 6.93041143 9.09119067 5.25 7.4375 C4.72398193 6.92461426 4.19796387 6.41172852 3.65600586 5.88330078 C2.39751 4.62755411 1.19316359 3.31798034 0 2 C0 1.34 0 0.68 0 0 Z " fill="#78CBF6" transform="translate(93,399)"/>
<path d="M0 0 C15.80582351 -1.305068 32.23713039 3.80416714 47 9 C47.78955078 9.27295898 48.57910156 9.54591797 49.39257812 9.82714844 C68.95303024 16.66197823 87.20650592 25.8313617 104 38 C104.56122559 38.40573242 105.12245117 38.81146484 105.70068359 39.22949219 C113.97652931 45.27399925 121.61779041 51.89928553 129 59 C129.5573584 59.53544434 130.1147168 60.07088867 130.68896484 60.62255859 C132.38455723 62.26068951 134.06958857 63.90880933 135.75 65.5625 C136.27601807 66.07538574 136.80203613 66.58827148 137.34399414 67.11669922 C138.60249 68.37244589 139.80683641 69.68201966 141 71 C141 71.66 141 72.32 141 73 C111.96 73 82.92 73 53 73 C50.36 68.38 47.72 63.76 45 59 C42.91229125 55.76878491 40.82077322 52.59005215 38.625 49.4375 C38.06973633 48.63376953 37.51447266 47.83003906 36.94238281 47.00195312 C32.17831276 40.1554837 27.20518748 33.51741962 22 27 C21.26394531 26.07058594 20.52789062 25.14117187 19.76953125 24.18359375 C15.27518352 18.59151153 10.57662796 13.25020948 5.62915039 8.05834961 C3.24886345 5.52672744 1.33485835 3.22654333 0 0 Z " fill="#A0DAFA" transform="translate(278,40)"/>
<path d="M0 0 C3.18046187 1.40634466 5.33536362 3.07848343 7.79296875 5.52734375 C8.50122803 6.23157471 9.2094873 6.93580566 9.93920898 7.66137695 C10.68114502 8.41249756 11.42308105 9.16361816 12.1875 9.9375 C13.33424194 11.09221802 13.33424194 11.09221802 14.50415039 12.27026367 C19.22261035 17.06810993 23.69012775 21.91425743 27.81567383 27.23461914 C30.01790979 30.02267398 32.30956136 32.71230716 34.62109375 35.41015625 C39.81100399 41.56814269 44.38997016 48.07400248 48.87207031 54.75830078 C50.15101553 56.66375969 51.44202337 58.56064571 52.734375 60.45703125 C59 69.72449998 59 69.72449998 59 72 C20.72 72 -17.56 72 -57 72 C-55.55910046 68.39775116 -54.48988065 65.99253792 -52.3828125 62.91796875 C-51.86428711 62.15863037 -51.34576172 61.39929199 -50.81152344 60.61694336 C-50.2549707 59.81522705 -49.69841797 59.01351074 -49.125 58.1875 C-48.54782227 57.35162354 -47.97064453 56.51574707 -47.37597656 55.65454102 C-39.1867098 43.86767083 -30.78774721 32.51703033 -21 22 C-19.93361713 20.75331085 -18.87102009 19.50337204 -17.8125 18.25 C-12.24306008 11.83188352 -6.04258156 5.96715406 0 0 Z " fill="#A0DAFA" transform="translate(255,41)"/>
<path d="M0 0 C38.28 0 76.56 0 116 0 C114.55910046 3.60224884 113.48988065 6.00746208 111.3828125 9.08203125 C110.86436768 9.84128906 110.34592285 10.60054688 109.81176758 11.3828125 C109.25513428 12.18460937 108.69850098 12.98640625 108.125 13.8125 C107.54709717 14.64910156 106.96919434 15.48570312 106.3737793 16.34765625 C98.54830602 27.60763688 90.60973786 38.61774 81.21875 48.6328125 C79.3099506 50.66931327 77.49017421 52.74537017 75.6875 54.875 C70.46936443 60.89980387 64.67054294 66.40620125 59 72 C55.81953813 70.59365534 53.66463638 68.92151657 51.20703125 66.47265625 C50.49877197 65.76842529 49.7905127 65.06419434 49.06079102 64.33862305 C48.31885498 63.58750244 47.57691895 62.83638184 46.8125 62.0625 C46.04800537 61.29268799 45.28351074 60.52287598 44.49584961 59.72973633 C39.77738965 54.93189007 35.30987225 50.08574257 31.18432617 44.76538086 C28.98209021 41.97732602 26.69043864 39.28769284 24.37890625 36.58984375 C19.18899601 30.43185731 14.61002984 23.92599752 10.12792969 17.24169922 C8.84898447 15.33624031 7.55797663 13.43935429 6.265625 11.54296875 C0 2.27550002 0 2.27550002 0 0 Z " fill="#78CBF6" transform="translate(198,399)"/>
<path d="M0 0 C6.20677914 -0.32364877 12.40856491 -0.55824024 18.62182617 -0.71411133 C20.73011879 -0.77912334 22.83783343 -0.8675756 24.9440918 -0.98071289 C43.4089504 -1.94702446 43.4089504 -1.94702446 48.72143555 2.74511719 C51.61397992 5.8900533 53.75596862 9.37460433 56 13 C57.65579524 15.04018373 59.40252153 16.94235865 61.1875 18.875 C62.00992188 19.76960938 62.83234375 20.66421875 63.6796875 21.5859375 C66.93656888 24.97441005 70.39351174 27.99354043 74 31 C74.93199219 31.81984375 75.86398438 32.6396875 76.82421875 33.484375 C86.99267333 42.38496637 97.95596301 50.01004973 109.52026367 56.98876953 C110.00857666 57.32247559 110.49688965 57.65618164 111 58 C111 58.33 111 58.66 111 59 C82.62 59 54.24 59 25 59 C19.9799483 50.21490952 15.33814457 41.89825747 11.375 32.6875 C10.90989014 31.61806152 10.44478027 30.54862305 9.96557617 29.44677734 C0 6.26042371 0 6.26042371 0 0 Z " fill="#79CDF9" transform="translate(164,325)"/>
<path d="M0 0 C3.37584668 4.28760133 5.23683284 8.72319666 7.015625 13.8046875 C7.27631775 14.5286673 7.5370105 15.25264709 7.80560303 15.99856567 C8.62805213 18.28805689 9.4391786 20.58136847 10.25 22.875 C10.80914933 24.4377673 11.36903805 26.00027025 11.9296875 27.5625 C13.2950245 31.37199764 14.65022907 35.18496072 16 39 C18.58126365 32.95567038 21.07832249 26.89947632 23.31640625 20.71875 C23.68830078 19.69265625 24.06019531 18.6665625 24.44335938 17.609375 C25.19986241 15.50753759 25.94969271 13.40328836 26.69335938 11.296875 C27.06396484 10.28109375 27.43457031 9.2653125 27.81640625 8.21875 C28.14068604 7.31060547 28.46496582 6.40246094 28.79907227 5.46679688 C30.16173395 2.66778616 31.61846996 0.99270301 34 -1 C36.9375 -1.625 36.9375 -1.625 40 -1 C44.13793729 3.22808579 46.19362068 7.22007641 48.078125 12.76953125 C48.33503113 13.49113937 48.59193726 14.2127475 48.85662842 14.95622253 C49.66641647 17.23762622 50.45881807 19.52458518 51.25 21.8125 C52.05888791 24.11691792 52.87131004 26.42004034 53.68621826 28.72233582 C54.19019448 30.14980382 54.69003942 31.57873839 55.18536377 33.00923157 C56.14569384 36.2590036 56.14569384 36.2590036 58 39 C58.36762451 37.93040039 58.73524902 36.86080078 59.11401367 35.75878906 C60.48637705 31.77974765 61.87977459 27.80834277 63.27954102 23.83886719 C63.88163333 22.1221189 64.47805578 20.40337087 65.06860352 18.68261719 C65.9200971 16.2047637 66.79194509 13.73489622 67.66796875 11.265625 C67.92652145 10.49881409 68.18507416 9.73200317 68.45146179 8.94195557 C70.10597466 4.35549317 71.62903009 1.57469832 76 -1 C79.80284671 -1 82.01930006 -0.7968187 85 1.625 C87.82985774 8.34591214 83.00199815 17.18673752 80.703125 23.5390625 C80.27247742 24.73808197 79.84182983 25.93710144 79.39813232 27.17245483 C78.48710585 29.70033829 77.57304827 32.22689093 76.65429688 34.75195312 C75.48233952 37.9758028 74.32973655 41.20620643 73.18187332 44.43869972 C72.07663068 47.53924265 70.95110858 50.63240981 69.828125 53.7265625 C69.4195929 54.88185455 69.01106079 56.03714661 68.59014893 57.22744751 C64.78573242 67.56441078 64.78573242 67.56441078 60 71 C56.375 71.125 56.375 71.125 53 70 C50.19334466 66.15693081 48.67397646 61.8088044 47.08203125 57.36328125 C46.81992355 56.64262985 46.55781586 55.92197845 46.2877655 55.17948914 C45.73825303 53.66507926 45.19128259 52.14974481 44.64672852 50.63354492 C43.81064718 48.30734495 42.96552422 45.98457811 42.11914062 43.66210938 C41.58540238 42.1876936 41.05218091 40.71309063 40.51953125 39.23828125 C40.26645706 38.54245438 40.01338287 37.8466275 39.75263977 37.12971497 C38 32.2313645 38 32.2313645 38 30 C37.34 30 36.68 30 36 30 C35.76108032 30.83156616 35.76108032 30.83156616 35.51733398 31.67993164 C33.26910095 39.34932596 30.70463061 46.89584636 28.0625 54.4375 C27.84698486 55.07196045 27.63146973 55.7064209 27.40942383 56.36010742 C26.776488 58.22228502 26.12481428 60.07806065 25.47265625 61.93359375 C25.09375244 63.02728271 24.71484863 64.12097168 24.32446289 65.24780273 C22.89714425 68.2137314 21.8379917 69.39167974 19 71 C16 71.5 16 71.5 13 71 C9.91572935 67.70677619 8.17566702 64.51180035 6.60229492 60.31103516 C6.17893356 59.19282379 5.7555722 58.07461243 5.31938171 56.92251587 C4.87754044 55.72347626 4.43569916 54.52443665 3.98046875 53.2890625 C3.51333422 52.03488638 3.04582408 50.78085011 2.57795715 49.52694702 C1.60245172 46.90510776 0.63444604 44.28064243 -0.32885742 41.65429688 C-1.5602928 38.3000443 -2.81457437 34.95486283 -4.07520008 31.61149025 C-5.04615022 29.02631443 -6.00248493 26.4359106 -6.95480919 23.84382248 C-7.63186645 22.01084946 -8.32286467 20.18304523 -9.01411438 18.3553772 C-12.81903358 7.8581115 -12.81903358 7.8581115 -11 2 C-7.81552159 -1.91935805 -4.57963333 -1.39024583 0 0 Z " fill="#040302" transform="translate(219,221)"/>
<path d="M0 0 C3.12845451 3.26136761 4.42551369 7.32397936 5.91796875 11.50390625 C6.31113029 12.58344826 6.31113029 12.58344826 6.7122345 13.68479919 C7.26253563 15.20070426 7.80948426 16.71783006 8.35327148 18.23608398 C9.18698824 20.56107284 10.03308717 22.88127626 10.88085938 25.20117188 C11.41480302 26.6768156 11.94803096 28.15271852 12.48046875 29.62890625 C12.86008003 30.66961021 12.86008003 30.66961021 13.24736023 31.7313385 C14.27907305 34.62891732 15 36.89857971 15 40 C15.66 40 16.32 40 17 40 C17.11174561 39.16428467 17.22349121 38.32856934 17.33862305 37.4675293 C18.06494093 33.65952157 19.23796478 30.14130251 20.58203125 26.51953125 C20.83748215 25.82486252 21.09293304 25.13019379 21.35612488 24.41447449 C21.89537488 22.95532441 22.43760624 21.49727302 22.98266602 20.0402832 C23.81217521 17.81337194 24.62211223 15.5799426 25.43164062 13.34570312 C25.95975169 11.92403811 26.48900959 10.50279847 27.01953125 9.08203125 C27.25823441 8.4163765 27.49693756 7.75072174 27.74287415 7.06489563 C29.1712042 3.31743956 30.36888665 0.87149698 34 -1 C40.03836229 -0.78812764 40.03836229 -0.78812764 42.61897278 1.32685852 C44.97669053 4.18327967 45.93302345 7.71201948 47.13671875 11.16796875 C47.56317436 12.36018791 47.56317436 12.36018791 47.99824524 13.57649231 C48.90267437 16.11072766 49.79520728 18.64896925 50.6875 21.1875 C51.29935028 22.90848061 51.91197152 24.62918733 52.52539062 26.34960938 C54.02588508 30.56328267 55.51572565 34.78058725 57 39 C59.58126365 32.95567038 62.07832249 26.89947632 64.31640625 20.71875 C64.68830078 19.69265625 65.06019531 18.6665625 65.44335938 17.609375 C66.19986241 15.50753759 66.94969271 13.40328836 67.69335938 11.296875 C68.06396484 10.28109375 68.43457031 9.2653125 68.81640625 8.21875 C69.14068604 7.31060547 69.46496582 6.40246094 69.79907227 5.46679688 C71.16272665 2.66574708 72.60985022 0.98700227 75 -1 C78.60146865 -1.60024477 80.27859404 -1.45562482 83.375 0.5 C85.6578509 4.0120783 85.53083891 6.97283621 85 11 C83.77272328 15.47805071 82.17090195 19.79694823 80.546875 24.14453125 C80.08486817 25.4035844 79.62363859 26.66292301 79.16314697 27.92253113 C78.19966631 30.54878955 77.22699852 33.1714013 76.24755859 35.79174805 C74.99477904 39.14562518 73.76540352 42.50752958 72.54270554 45.87247181 C71.59624389 48.46929847 70.63764841 51.06151411 69.67533112 53.65250206 C68.99503179 55.49073558 68.32491538 57.33272729 67.65496826 59.17475891 C67.23483459 60.28989365 66.81470093 61.40502838 66.38183594 62.55395508 C66.01765564 63.53576248 65.65347534 64.51756989 65.27825928 65.52912903 C63.84892155 68.29203414 62.70603278 69.49193845 60 71 C53.87919139 70.89261739 53.87919139 70.89261739 51.48120117 68.45800781 C49.42575265 65.04705418 48.17776132 61.4831677 46.86328125 57.734375 C46.43682564 56.54427826 46.43682564 56.54427826 46.00175476 55.33013916 C45.09882802 52.80569282 44.20555333 50.27795391 43.3125 47.75 C42.70050422 46.03362782 42.08788102 44.31747922 41.47460938 42.6015625 C39.97579097 38.40359739 38.48561731 34.20265403 37 30 C36.24646156 31.9219273 35.4929572 33.84386797 34.73968506 35.76589966 C34.12904876 37.32380508 33.51799003 38.88154494 32.90673828 40.43920898 C31.2463236 44.7002786 29.63877173 48.97240094 28.1171875 53.28515625 C27.66291382 54.56265747 27.66291382 54.56265747 27.19946289 55.8659668 C26.61877431 57.5086138 26.04727168 59.15454404 25.48608398 60.80395508 C23.98199849 65.03977524 22.71137618 68.20365739 19 71 C16 71.5 16 71.5 13 71 C9.55920292 68.1711623 8.12380354 65.46520982 6.61816406 61.31689453 C6.1980304 60.17535919 5.77789673 59.03382385 5.34503174 57.85769653 C4.90632751 56.6284848 4.46762329 55.39927307 4.015625 54.1328125 C3.55122461 52.85227196 3.08610486 51.5719921 2.62030029 50.29196167 C1.6483022 47.61304675 0.68432103 44.93142201 -0.27392578 42.24755859 C-1.49931117 38.81717096 -2.74320954 35.39385754 -3.9930687 31.97232246 C-4.95587318 29.33080743 -5.90930744 26.68598574 -6.85993195 24.04006577 C-7.53528589 22.16498891 -8.21798958 20.29256447 -8.90081787 18.42019653 C-9.3083429 17.27235687 -9.71586792 16.12451721 -10.13574219 14.94189453 C-10.49674011 13.93691925 -10.85773804 12.93194397 -11.22967529 11.89651489 C-12.06306871 8.76285396 -12.2848539 6.2277893 -12 3 C-8.27967458 -1.39674823 -5.40387298 -1.60114755 0 0 Z " fill="#030301" transform="translate(108,221)"/>
<path d="M0 0 C4.24999211 1.29017618 5.04461692 2.42710716 7.5 6.0625 C8.6010613 8.62320512 9.57581469 11.10840692 10.48046875 13.734375 C10.73878983 14.45739807 10.9971109 15.18042114 11.26325989 15.925354 C12.08059383 18.21791041 12.88460035 20.51485318 13.6875 22.8125 C14.50352551 25.12349194 15.32229431 27.43347 16.14387512 29.74249268 C16.65293055 31.17568674 17.15831911 32.61018946 17.65971375 34.04608154 C18.63439122 37.30878384 18.63439122 37.30878384 20.5 40.0625 C20.87286133 38.99290039 21.24572266 37.92330078 21.62988281 36.82128906 C23.01983078 32.843849 24.42487227 28.87188048 25.83447266 24.90136719 C26.44177884 23.18406725 27.04501392 21.46532185 27.64404297 19.74511719 C28.50715988 17.26884478 29.38491578 14.79818673 30.265625 12.328125 C30.52933899 11.56131409 30.79305298 10.79450317 31.0647583 10.00445557 C32.56180701 5.8557041 33.8883947 2.83038873 37.5 0.0625 C40.4375 -0.5 40.4375 -0.5 43.5 0.0625 C47.85759791 3.65782719 49.81008388 7.43289881 51.61328125 12.6640625 C51.87255905 13.38234222 52.13183685 14.10062195 52.39897156 14.84066772 C52.94065237 16.3494255 53.47561818 17.86060947 54.00415039 19.37402344 C54.81420325 21.69237465 55.64444608 24.00269355 56.47851562 26.3125 C57.00378838 27.78343182 57.52791752 29.25477264 58.05078125 30.7265625 C58.29758133 31.41722809 58.54438141 32.10789368 58.79866028 32.81948853 C59.80234273 35.70508404 60.5 37.98280586 60.5 41.0625 C61.16 41.0625 61.82 41.0625 62.5 41.0625 C62.71914063 39.88429688 62.93828125 38.70609375 63.1640625 37.4921875 C64.57005919 31.18373486 66.84299689 25.18874302 69.13085938 19.15820312 C69.87957317 17.17538891 70.60794394 15.18581301 71.3359375 13.1953125 C71.81388487 11.9240201 72.29300966 10.65316959 72.7734375 9.3828125 C73.20060059 8.24086426 73.62776367 7.09891602 74.06787109 5.92236328 C75.56729351 2.92811947 76.56672672 1.63068107 79.5 0.0625 C85.46452373 0.27178153 85.46452373 0.27178153 88.21759033 2.37409973 C89.5 4.0625 89.5 4.0625 89.45605469 7.9519043 C88.52328634 14.16266773 86.34434433 19.95226988 84.203125 25.83203125 C83.55715363 27.62987312 83.55715363 27.62987312 82.89813232 29.46403503 C81.98858893 31.98479395 81.07491531 34.50357722 80.15429688 37.02026367 C78.97899021 40.23627998 77.82741681 43.46023757 76.68187332 46.68695545 C75.5783913 49.78222133 74.45197077 52.86911248 73.328125 55.95703125 C72.9195929 57.11121048 72.51106079 58.26538971 72.09014893 59.45454407 C71.69333923 60.52633408 71.29652954 61.59812408 70.88769531 62.70239258 C70.54651672 63.64343338 70.20533813 64.58447418 69.8538208 65.55403137 C68.20282458 68.61313064 66.36398452 70.12774928 63.5 72.0625 C60.9375 72.5625 60.9375 72.5625 58.5 72.0625 C54.41375841 68.85461896 52.97734588 64.83853122 51.30078125 60.0859375 C51.02026413 59.31947906 50.73974701 58.55302063 50.45072937 57.76333618 C49.56079734 55.32506373 48.68631692 52.8815883 47.8125 50.4375 C46.92453951 47.98762253 46.03351214 45.53887676 45.14213562 43.09024048 C44.58960193 41.56875115 44.0397213 40.04629521 43.49275208 38.52279663 C42.14388181 34.73117336 42.14388181 34.73117336 40.5 31.0625 C39.89526855 32.76563354 39.89526855 32.76563354 39.27832031 34.50317383 C37.77796849 38.71786272 36.26070629 42.92629602 34.73828125 47.13305664 C34.08196168 48.95398676 33.43022887 50.77657693 32.78320312 52.60083008 C31.85188986 55.22407672 30.90419661 57.84089365 29.953125 60.45703125 C29.66753723 61.27275101 29.38194946 62.08847076 29.08770752 62.9289093 C26.41319325 70.19397403 26.41319325 70.19397403 22.5 72.0625 C18.9375 72 18.9375 72 15.5 71.0625 C12.90868987 68.2351973 11.64229161 65.25766155 10.32348633 61.68652344 C9.92329788 60.61150574 9.52310944 59.53648804 9.11079407 58.42889404 C8.68880234 57.27157776 8.26681061 56.11426147 7.83203125 54.921875 C7.39235519 53.72572571 6.95267914 52.52957642 6.49967957 51.29718018 C5.57243369 48.76657186 4.64833004 46.23504465 3.72875977 43.70166016 C2.5552279 40.47122633 1.36384582 37.24770775 0.16759205 34.02563095 C-0.97678799 30.93281137 -2.1024605 27.8331956 -3.23046875 24.734375 C-3.65853317 23.58515564 -4.0865976 22.43593628 -4.52763367 21.25189209 C-6.67062676 15.28673963 -8.18725881 10.41308443 -7.5 4.0625 C-5.28748437 0.43397437 -4.26107077 0.07609055 0 0 Z " fill="#040302" transform="translate(326.5,219.9375)"/>
<path d="M0 0 C-0.63035156 0.24492188 -1.26070313 0.48984375 -1.91015625 0.7421875 C-4.11268394 1.80673552 -4.11268394 1.80673552 -4.87109375 3.8203125 C-5.05800781 4.58085938 -5.24492187 5.34140625 -5.4375 6.125 C-6.45949641 9.99081249 -7.55721405 13.80428454 -8.78808594 17.60961914 C-12.96469655 30.57124343 -16.15692363 43.4841066 -18 57 C-10.41 57 -2.82 57 5 57 C5 57.33 5 57.66 5 58 C-24.04 58 -53.08 58 -83 58 C-81.22952105 54.4590421 -79.96484798 52.7083016 -77.25390625 49.98828125 C-76.50367187 49.23401855 -75.7534375 48.47975586 -74.98046875 47.70263672 C-74.18253906 46.9138916 -73.38460937 46.12514648 -72.5625 45.3125 C-71.75296875 44.50828613 -70.9434375 43.70407227 -70.109375 42.87548828 C-53.97985318 27 -53.97985318 27 -50 27 C-49.83126522 25.56274129 -49.66509263 24.12518162 -49.5 22.6875 C-49.36078125 21.48673828 -49.36078125 21.48673828 -49.21875 20.26171875 C-48.95186537 17.88103445 -48.95186537 17.88103445 -49 15 C-47.56298828 13.74145508 -47.56298828 13.74145508 -45.5703125 12.51953125 C-44.85746094 12.07802734 -44.14460938 11.63652344 -43.41015625 11.18164062 C-42.65605469 10.72982422 -41.90195313 10.27800781 -41.125 9.8125 C-40.37863281 9.34908203 -39.63226563 8.88566406 -38.86328125 8.40820312 C-33.29169735 5 -33.29169735 5 -31 5 C-31 5.66 -31 6.32 -31 7 C-23.20043584 8.56932881 -19.02278017 7.23176435 -12.125 3.5 C-10.46538069 2.62691806 -8.80148131 1.76190925 -7.1328125 0.90625 C-6.40980957 0.51759766 -5.68680664 0.12894531 -4.94189453 -0.27148438 C-3 -1 -3 -1 0 0 Z " fill="#78CAF5" transform="translate(176,55)"/>
<path d="M0 0 C29.37 0 58.74 0 89 0 C82.23825645 7.8887008 82.23825645 7.8887008 79.23828125 10.89453125 C78.59439453 11.53970703 77.95050781 12.18488281 77.28710938 12.84960938 C76.63548828 13.49736328 75.98386719 14.14511719 75.3125 14.8125 C74.64927734 15.47958984 73.98605469 16.14667969 73.30273438 16.83398438 C72.66271484 17.47271484 72.02269531 18.11144531 71.36328125 18.76953125 C70.78876221 19.34292236 70.21424316 19.91631348 69.62231445 20.50708008 C65.79199212 24.0318989 63.45848915 24.29342887 58.51953125 24.17773438 C54.27518093 23.87832672 50.16442157 23.09934078 46 22.25 C45.08355713 22.06808105 44.16711426 21.88616211 43.22290039 21.69873047 C40.47877753 21.14661895 37.73879395 20.57792463 35 20 C34.24058105 19.83983398 33.48116211 19.67966797 32.69873047 19.51464844 C24.05250722 17.65639101 15.50873526 15.40686244 7 13 C6.12013428 12.76297363 5.24026855 12.52594727 4.33374023 12.28173828 C3.52235596 12.04438965 2.71097168 11.80704102 1.875 11.5625 C1.15054687 11.35753906 0.42609375 11.15257812 -0.3203125 10.94140625 C-2 10 -2 10 -2.9296875 8.27734375 C-3 6 -3 6 0 0 Z " fill="#9ED8F7" transform="translate(331,399)"/>
<path d="M0 0 C5.61 0 11.22 0 17 0 C16.443125 1.15113281 15.88625 2.30226562 15.3125 3.48828125 C9.85162682 14.85416739 4.79296862 26.33754502 0 38 C-0.33 38 -0.66 38 -1 38 C-1.1019005 25.27968253 -1.15251998 12.67771976 0 0 Z " fill="#A0DAFA" transform="translate(155,128)"/>
</svg>
